<svg className="icon" viewBox="0 0 1024 1024" version="1.1" xmlns="http://www.w3.org/2000/svg"
    p-id="6976" width="20" height="20">
    <path
        d="M512 0c-35.84 0-64 28.16-64 64s28.16 64 64 64 64-28.16 64-64S547.84 0 512 0zM192 128c-35.84 0-64 28.16-64 64s28.16 64 64 64 64-28.16 64-64-28.16-64-64-64z m640 0c-35.84 0-64 28.16-64 64s28.16 64 64 64 64-28.16 64-64-28.16-64-64-64zM512 256c-140.8 0-256 115.2-256 256s115.2 256 256 256 256-115.2 256-256-115.2-256-256-256zM64 448c-35.84 0-64 28.16-64 64s28.16 64 64 64 64-28.16 64-64-28.16-64-64-64z m896 0c-35.84 0-64 28.16-64 64s28.16 64 64 64 64-28.16 64-64-28.16-64-64-64zM192 768c-35.84 0-64 28.16-64 64s28.16 64 64 64 64-28.16 64-64-28.16-64-64-64z m640 0c-35.84 0-64 28.16-64 64s28.16 64 64 64 64-28.16 64-64-28.16-64-64-64zM512 896c-35.84 0-64 28.16-64 64s28.16 64 64 64 64-28.16 64-64S547.84 896 512 896z"
        p-id="6977" fill="#000000"></path>
</svg>